<svg width="25" height="24" viewBox="0 0 25 24" fill="none" xmlns="http://www.w3.org/2000/svg">
<path d="M15.4337 9.51463L10.3927 14.5557C9.74509 13.9081 9.34659 13.0214 9.34659 12.0351C9.34659 10.0626 10.9406 8.46857 12.9132 8.46857C13.8995 8.46857 14.7861 8.86707 15.4337 9.51463Z" stroke="#797979" stroke-width="1.49438" stroke-linecap="round" stroke-linejoin="round"/>
<path d="M18.7107 5.82828C16.9672 4.51323 14.9747 3.79593 12.9125 3.79593C9.39573 3.79593 6.11807 5.86813 3.83665 9.45463C2.94003 10.8593 2.94003 13.2205 3.83665 14.6252C4.62369 15.8605 5.54024 16.9265 6.53649 17.7833" stroke="#797979" stroke-width="1.49438" stroke-linecap="round" stroke-linejoin="round"/>
<path d="M9.34625 19.5368C10.482 20.015 11.6874 20.274 12.9128 20.274C16.4296 20.274 19.7073 18.2018 21.9887 14.6153C22.8853 13.2106 22.8853 10.8495 21.9887 9.4448C21.6599 8.92675 21.3013 8.43859 20.9326 7.98032" stroke="#797979" stroke-width="1.49438" stroke-linecap="round" stroke-linejoin="round"/>
<path d="M16.4104 12.7331C16.1514 14.1378 15.0057 15.2835 13.601 15.5425" stroke="#797979" stroke-width="1.49438" stroke-linecap="round" stroke-linejoin="round"/>
<path d="M10.393 14.5558L2.95099 21.9978" stroke="#797979" stroke-width="1.49438" stroke-linecap="round" stroke-linejoin="round"/>
<path d="M22.8756 2.07294L15.4337 9.51493" stroke="#797979" stroke-width="1.49438" stroke-linecap="round" stroke-linejoin="round"/>
</svg>
